<?xml version="1.0" standalone="no"?>
<!DOCTYPE svg PUBLIC "-//W3C//DTD SVG 20010904//EN"
 "http://www.w3.org/TR/2001/REC-SVG-20010904/DTD/svg10.dtd">
<svg version="1.0" xmlns="http://www.w3.org/2000/svg"
 width="426.000000pt" height="418.000000pt" viewBox="0 0 426.000000 418.000000"
 preserveAspectRatio="xMidYMid meet">

<g transform="translate(0.000000,418.000000) scale(0.100000,-0.100000)"
fill="#000000" stroke="none">
<path d="M1985 3149 c-44 -5 -118 -19 -163 -29 -378 -90 -708 -383 -845 -750
-53 -143 -70 -234 -73 -405 -6 -304 69 -540 249 -775 178 -233 414 -383 711
-456 91 -22 118 -24 276 -21 140 3 193 8 265 26 228 58 416 165 583 332 158
158 276 364 329 574 25 100 27 126 27 285 0 201 -16 288 -86 469 -96 246 -335
503 -586 630 -191 96 -474 146 -687 120z m282 -94 c303 -32 621 -229 804 -497
176 -257 233 -616 148 -928 -92 -335 -374 -638 -708 -760 -151 -55 -211 -65
-396 -64 -153 0 -180 3 -270 28 -484 132 -829 554 -852 1041 -16 335 91 616
322 851 100 102 167 150 301 217 110 55 188 81 302 101 132 23 211 26 349 11z"/>
<path d="M1387 2604 c-4 -4 -7 -277 -7 -606 l1 -599 102 2 c176 2 243 14 334
59 138 68 247 207 289 369 18 73 12 126 -19 172 -35 52 -44 47 -51 -33 -19
-208 -108 -353 -264 -430 -61 -30 -76 -33 -179 -37 l-113 -3 0 148 c-1 82 -3
310 -6 507 l-5 357 149 0 c248 0 371 -36 487 -142 69 -63 106 -116 139 -199
79 -200 75 -435 -12 -607 -72 -145 -238 -316 -388 -403 l-59 -34 54 -3 c79 -5
173 43 277 141 92 87 152 169 251 347 187 334 447 740 475 740 2 0 3 -78 3
-172 0 -95 1 -309 3 -475 l2 -303 45 0 45 0 0 545 0 545 -31 0 c-97 0 -189
-107 -410 -478 -55 -91 -101 -167 -102 -169 -2 -1 -4 27 -5 63 -2 76 -31 215
-62 296 -47 125 -168 262 -289 327 -106 56 -190 72 -431 78 -118 3 -218 2
-223 -3z"/>
</g>
</svg>
